<svg xmlns="http://www.w3.org/2000/svg" viewBox="0 0 1024 1024" role="img" aria-label="GRU953 Soaring Bird -- grid rebuild candidate (attempt C)"><path d="M128.00,192.00 L640.00,448.00 L768.00,448.00 L768.00,384.00 L896.00,448.00 L896.00,512.00 L832.00,512.00 L704.00,576.00 L704.00,640.00 L704.00,704.00 L640.00,768.00 L320.00,896.00 L448.00,704.00 L320.00,640.00 L256.00,576.00 L256.00,512.00 L192.00,448.00 L192.00,320.00 L128.00,256.00 Z M477.48,423.31 L587.48,423.31 L587.48,507.31 L477.48,507.31 Z M270.90,313.32 L341.34,351.25 L291.88,444.15 L221.09,406.89 Z M352.30,347.96 L420.17,382.15 L334.70,551.84 L266.83,517.65 Z M394.85,470.19 L475.94,509.24 L422.69,619.35 L341.73,580.02 Z M534.20,674.34 L629.20,674.34 L629.20,758.34 L534.20,758.34 Z M681.57,458.05 L761.57,458.05 L761.57,538.05 L681.57,538.05 Z M451.59,669.96 L531.59,669.96 L531.59,759.96 L451.59,759.96 Z M527.96,522.56 L637.96,522.56 L637.96,612.56 L527.96,612.56 Z" fill="currentColor" fill-rule="evenodd"/></svg>